<svg xmlns="http://www.w3.org/2000/svg">
  <symbol id="icon-back" viewBox="0 0 55.753 55.753">
    <path d="M12.745 23.915c.283-.282.59-.52.913-.727L35.266 1.581a5.4 5.4 0 017.637 7.638L24.294 27.828l18.705 18.706a5.4 5.4 0 01-7.636 7.637L13.658 32.464a5.367 5.367 0 01-.913-.727 5.367 5.367 0 01-1.572-3.911 5.369 5.369 0 011.572-3.911z"/>
  </symbol>
  <symbol id="icon-next" viewBox="0 0 55.752 55.752">
    <path d="M43.006 23.916a5.36 5.36 0 00-.912-.727L20.485 1.581a5.4 5.4 0 00-7.637 7.638l18.611 18.609-18.705 18.707a5.398 5.398 0 107.634 7.635l21.706-21.703a5.35 5.35 0 00.912-.727 5.373 5.373 0 001.574-3.912 5.363 5.363 0 00-1.574-3.912z"/>
  </symbol>
  <symbol id="icon-zoom-in" viewBox="0 0 490.8 490.8">
    <path d="M364.8 299.55c46.3-75.8 36.9-176.3-28.6-241.9-76.8-76.8-201.8-76.8-278.6 0s-76.8 201.8 0 278.5c65.5 65.5 166 74.9 241.9 28.6L412 477.25c18 18 47.3 18 65.3 0s18-47.3 0-65.3l-112.5-112.4zm-69.3-4c-54.4 54.4-142.8 54.4-197.1 0-54.4-54.4-54.4-142.8 0-197.1 54.4-54.4 142.8-54.4 197.1 0 54.3 54.3 54.3 142.7 0 197.1zM220 171.95h59.4v45.3H220v59.4h-45.3v-59.4h-59.3v-45.3h59.4v-59.4h45.3v59.4h-.1z"/>
  </symbol>
  <symbol id="icon-close" viewBox="0 0 47.095 47.095">
    <path d="M45.363 36.234l-13.158-13.16 12.21-12.21a5.906 5.906 0 000-8.358 5.908 5.908 0 00-8.356 0l-12.212 12.21-12.809-12.81a5.91 5.91 0 10-8.358 8.358l12.81 12.81L1.732 36.831a5.91 5.91 0 108.356 8.359l13.759-13.758 13.16 13.16a5.908 5.908 0 008.356 0 5.907 5.907 0 000-8.358z"/>
  </symbol>
  <symbol id="icon-ghost" viewBox="0 0 24 24">
    <path d="M9 11.01c-1.103 0-2-.897-2-2s.897-2 2-2 2 .897 2 2-.897 2-2 2zm0-2.5a.5.5 0 10.002 1.002A.5.5 0 009 8.51zM15 11.01c-1.103 0-2-.897-2-2s.897-2 2-2 2 .897 2 2-.897 2-2 2zm0-2.5a.5.5 0 10.002 1.002A.5.5 0 0015 8.51zM16.25 14.5h-8.5a.75.75 0 010-1.5h8.5a.75.75 0 010 1.5z"/><path d="M14.5 17a2.503 2.503 0 01-2.5-2.5v-.75a.75.75 0 01.75-.75h3.5a.75.75 0 01.75.75v.75c0 1.379-1.122 2.5-2.5 2.5zm-1-2.5a1.001 1.001 0 002 0z"/><path d="M12 23.997c-.416 0-.832-.095-1.21-.284l-3.113-1.557a1.205 1.205 0 00-1.104.014l-2.029 1.078a1.713 1.713 0 01-1.797-.106 1.721 1.721 0 01-.727-1.648L3.916 7.092C4.448 3.05 7.924.002 12 .002s7.552 3.048 8.084 7.09l1.897 14.403a1.72 1.72 0 01-.727 1.646 1.717 1.717 0 01-1.797.106l-2.028-1.078a1.207 1.207 0 00-1.105-.014l-3.113 1.557c-.379.19-.795.285-1.211.285zm-4.864-3.468c.415 0 .83.095 1.211.285l3.113 1.557c.338.17.741.17 1.079 0l3.113-1.557a2.712 2.712 0 012.481.031l2.027 1.078a.22.22 0 00.237-.014.22.22 0 00.096-.218L18.597 7.287c-.434-3.298-3.27-5.785-6.597-5.785S5.837 3.989 5.403 7.287L3.505 21.69a.223.223 0 00.096.22.225.225 0 00.237.014l2.028-1.078a2.7 2.7 0 011.27-.317z"/><path d="M20.353 15.606a.75.75 0 01-.655-1.115l2.768-4.979c.055-.099.043-.188-.033-.27a.218.218 0 00-.268-.046l-2.162 1.077a.75.75 0 01-.669-1.344l2.162-1.076a1.725 1.725 0 012.021.353c.535.56.636 1.358.259 2.035l-2.768 4.978a.744.744 0 01-.655.387zM3.647 15.606a.75.75 0 01-.656-.386L.223 10.241a1.698 1.698 0 01.259-2.034 1.722 1.722 0 012.023-.351l2.161 1.075a.751.751 0 01-.669 1.344L1.835 9.199c-.124-.064-.215-.01-.268.045-.076.081-.088.171-.033.269l2.768 4.979a.75.75 0 01-.655 1.114z"/>
  </symbol>
</svg>
